<?xml version="1.0" encoding="UTF-8" standalone="no"?>
<!-- Created with Inkscape (http://www.inkscape.org/) -->

<svg
   version="1.1"
   id="svg82"
   width="444.45676"
   height="639.63782"
   viewBox="0 0 444.45674 639.63778"
   sodipodi:docname="favicon.svg"
   inkscape:version="1.1.1 (1:1.1+202109281949+c3084ef5ed)"
   xmlns:inkscape="http://www.inkscape.org/namespaces/inkscape"
   xmlns:sodipodi="http://sodipodi.sourceforge.net/DTD/sodipodi-0.dtd"
   xmlns="http://www.w3.org/2000/svg"
   xmlns:svg="http://www.w3.org/2000/svg">
  <defs
     id="defs86" />
  <sodipodi:namedview
     id="namedview84"
     pagecolor="#505050"
     bordercolor="#eeeeee"
     borderopacity="1"
     inkscape:pageshadow="0"
     inkscape:pageopacity="0"
     inkscape:pagecheckerboard="0"
     showgrid="false"
     width="444.45676px"
     units="px"
     height="639.63782px"
     inkscape:zoom="0.4203125"
     inkscape:cx="210.55762"
     inkscape:cy="467.50929"
     inkscape:window-width="1848"
     inkscape:window-height="1016"
     inkscape:window-x="1440"
     inkscape:window-y="27"
     inkscape:window-maximized="1"
     inkscape:current-layer="g88" />
  <g
     inkscape:groupmode="layer"
     inkscape:label="Image"
     id="g88">
    <g
       id="g457"
       transform="translate(-232.02631,-170.70705)">
      <path
         style="fill:#fc9001"
         d="m 561.98381,745.52987 c -9.8446,-2.65041 -17.32412,-7.85482 -23.66249,-16.46489 -6.56338,-8.91573 -8.88594,-16.8876 -8.39885,-28.82796 0.33641,-8.24657 0.85147,-10.63218 3.52708,-16.33636 11.00032,-23.45175 38.42328,-33.16157 61.1372,-21.64724 17.17328,8.70563 27.29977,28.25312 24.18939,46.69356 -4.56078,27.03936 -30.40505,43.687 -56.79233,36.58289 z m 2.66232,-124.89906 c -19.69207,-5.43053 -32.89247,-22.90821 -32.89247,-43.55054 0,-15.68626 6.772,-28.67562 19.31776,-37.05336 27.69584,-18.49457 63.97261,-2.72578 69.71418,30.30336 3.1008,17.83783 -7.02873,38.1268 -23.11557,46.29936 -10.55074,5.36008 -22.74066,6.83701 -33.0239,4.00118 z m 0.0263,-122.38381 c -33.21666,-8.67102 -45.00692,-49.35171 -21.45853,-74.03973 9.19976,-9.645 19.49316,-14.09745 32.63449,-14.11618 12.44901,-0.0177 23.19443,4.51052 32.06494,13.51259 24.35434,24.71553 11.76729,67.19187 -22.20042,74.91766 -8.57394,1.9501 -12.72658,1.89595 -21.04048,-0.27434 z"
         id="path268" />
      <path
         style="fill:#4e4e4e"
         d="m 377.50366,784.33036 c 42.4875,-0.14434 112.0125,-0.14434 154.5,0 42.4875,0.14434 7.725,0.26243 -77.25,0.26243 -84.975,0 -119.7375,-0.11809 -77.25,-0.26243 z m -84,-0.91237 c 0.6875,-0.27741 1.8125,-0.27741 2.5,0 0.6875,0.27741 0.125,0.50439 -1.25,0.50439 -1.375,0 -1.9375,-0.22698 -1.25,-0.50439 z m 320,0 c 0.6875,-0.27741 1.8125,-0.27741 2.5,0 0.6875,0.27741 0.125,0.50439 -1.25,0.50439 -1.375,0 -1.9375,-0.22698 -1.25,-0.50439 z m 5.0625,-1.02083 c 0.72187,-0.28887 1.58438,-0.25335 1.91667,0.0789 0.33229,0.33229 -0.25834,0.56864 -1.3125,0.52522 -1.16495,-0.048 -1.4019,-0.28494 -0.60417,-0.60416 z m -339.0625,-3.38498 c -2.0625,-1.08883 -3.75,-2.20308 -3.75,-2.47612 0,-0.44554 7.89864,3.24582 8.91667,4.16713 1.15075,1.04143 -1.85309,0.0583 -5.16667,-1.69101 z m 352.80883,-2.49161 c 3.26764,-1.95783 8.18963,-5.67033 10.93775,-8.25 l 4.99658,-4.6903 -3.99658,4.37809 c -3.91752,4.2915 -14.7975,12.12191 -16.84279,12.12191 -0.56987,0 1.63739,-1.60186 4.90504,-3.5597 z m -364.36796,-6.1903 -5.86235,-5.75 5.58574,4.92482 c 3.07216,2.70865 6.01324,5.29615 6.53574,5.75 0.5225,0.45385 0.64698,0.82518 0.27661,0.82518 -0.37036,0 -3.31145,-2.5875 -6.53574,-5.75 z m -8.31843,-9 c -1.24387,-1.58606 -1.2085,-1.62143 0.37756,-0.37756 0.9625,0.75485 1.75,1.54235 1.75,1.75 0,0.82304 -0.82119,0.29331 -2.12756,-1.37244 z m 389.63884,-0.62688 c 0.94531,-1.44271 1.90782,-2.62312 2.13891,-2.62312 0.72338,0 -1.6049,3.85397 -2.75929,4.56743 -0.6041,0.37335 -0.32492,-0.50159 0.62038,-1.94431 z m -394.0524,-6.68965 c -0.36253,-0.58659 -0.44468,-1.281 -0.18255,-1.54313 0.26212,-0.26213 0.74306,0.21781 1.06875,1.06653 0.67618,1.76211 0.0999,2.07206 -0.8862,0.4766 z m 104.36443,-6.68313 c 19.42782,-0.15185 50.92782,-0.15177 70,1.7e-4 19.07218,0.15195 3.17669,0.27618 -35.32331,0.27609 -38.5,-10e-5 -54.10451,-0.12442 -34.67669,-0.27626 z m 212.44044,0.0321 c 1.52006,-0.22986 3.77006,-0.22371 5,0.0136 1.22994,0.23736 -0.0137,0.42542 -2.76375,0.41792 -2.75,-0.008 -3.75631,-0.20172 -2.23625,-0.43157 z m -250.45125,-0.96555 c 0.72187,-0.28887 1.58438,-0.25335 1.91667,0.0789 0.33229,0.33229 -0.25834,0.56864 -1.3125,0.52522 -1.16495,-0.048 -1.4019,-0.28494 -0.60417,-0.60416 z m 144,0 c 0.72187,-0.28887 1.58438,-0.25335 1.91667,0.0789 0.33229,0.33229 -0.25834,0.56864 -1.3125,0.52522 -1.16495,-0.048 -1.4019,-0.28494 -0.60417,-0.60416 z m 99,0 c 0.72187,-0.28887 1.58438,-0.25335 1.91667,0.0789 0.33229,0.33229 -0.25834,0.56864 -1.3125,0.52522 -1.16495,-0.048 -1.4019,-0.28494 -0.60417,-0.60416 z m -312.73355,-2.90022 c 0.048,-1.16495 0.28494,-1.4019 0.60416,-0.60417 0.28887,0.72187 0.25335,1.58438 -0.0789,1.91667 -0.33229,0.33229 -0.56864,-0.25834 -0.52522,-1.3125 z m 59.67105,0.0114 c -3.87722,-2.10343 -3.43809,-2.82933 0.5,-0.82653 3.76952,1.91707 4.43665,2.41393 3.16667,2.35846 -0.50417,-0.022 -2.15417,-0.71139 -3.66667,-1.53193 z m 161.33333,1.20742 c 0.22917,-0.2005 1.54167,-0.90032 2.91667,-1.55516 2.35727,-1.12265 2.38918,-1.10183 0.55887,0.36454 -1.593,1.27626 -4.84786,2.39128 -3.47554,1.19062 z m 183.99562,-1.21878 c 0.048,-1.16495 0.28494,-1.4019 0.60416,-0.60417 0.28887,0.72187 0.25335,1.58438 -0.0789,1.91667 -0.33229,0.33229 -0.56864,-0.25834 -0.52522,-1.3125 z m -405.92106,-4.41671 c 0,-1.375 0.22698,-1.9375 0.50439,-1.25 0.27741,0.6875 0.27741,1.8125 0,2.5 -0.27741,0.6875 -0.50439,0.125 -0.50439,-1.25 z m 50.51776,-3.15596 -5.17565,-5.15597 5.5,4.83767 c 3.025,2.66071 5.6875,4.9809 5.91667,5.15596 0.22916,0.17507 0.0832,0.3183 -0.32435,0.3183 -0.40756,0 -3.07006,-2.32018 -5.91667,-5.15596 z m 179.32435,4.7784 c 0,-0.20765 0.7875,-0.99515 1.75,-1.75 1.58606,-1.24387 1.62143,-1.2085 0.37756,0.37756 -1.30637,1.66575 -2.12756,2.19548 -2.12756,1.37244 z m 177.232,-2.62244 c 0,-1.925 0.2058,-2.7125 0.45733,-1.75 0.25152,0.9625 0.25152,2.5375 0,3.5 -0.25153,0.9625 -0.45733,0.175 -0.45733,-1.75 z m -173.232,-0.31291 c 0,-0.1721 1.4625,-1.6346 3.25,-3.25 l 3.25,-2.93709 -2.93709,3.25 c -2.73778,3.02946 -3.56291,3.70965 -3.56291,2.93709 z m 121,-3.18709 c 1.29175,-1.375 2.57363,-2.5 2.84863,-2.5 0.275,0 -0.55688,1.125 -1.84863,2.5 -1.29175,1.375 -2.57363,2.5 -2.84863,2.5 -0.275,0 0.55688,-1.125 1.84863,-2.5 z m -115,-3.87756 c 0,-0.20765 0.7875,-0.99515 1.75,-1.75 1.58606,-1.24387 1.62143,-1.2085 0.37756,0.37756 -1.30637,1.66575 -2.12756,2.19548 -2.12756,1.37244 z m 46.87244,-1.37244 c -1.24387,-1.58606 -1.2085,-1.62143 0.37756,-0.37756 0.9625,0.75485 1.75,1.54235 1.75,1.75 0,0.82304 -0.82119,0.29331 -2.12756,-1.37244 z m -245.4205,-5.34293 c -0.87968,-1.70111 -1.42188,-3.27046 -1.2049,-3.48744 0.21698,-0.21698 1.14288,1.17483 2.05756,3.09293 2.05658,4.3127 1.34401,4.64239 -0.85266,0.39451 z m 203.11235,-0.2002 c 0.37553,-0.98622 0.93469,-1.54122 1.24258,-1.23333 0.30789,0.30789 6.4e-4,1.11479 -0.68278,1.79313 -0.98762,0.98026 -1.10248,0.8654 -0.5598,-0.5598 z m 1.52131,-3.20687 c 0.10413,-1.89422 1.77076,-5.08385 1.8288,-3.5 0.0302,0.825 -0.38124,2.175 -0.9144,3 -0.53316,0.825 -0.94464,1.05 -0.9144,0.5 z m -208.00665,-6.08333 c 0.048,-1.16495 0.28494,-1.4019 0.60416,-0.60417 0.28887,0.72187 0.25335,1.58438 -0.0789,1.91667 -0.33229,0.33229 -0.56864,-0.25834 -0.52522,-1.3125 z m 210,-1 c 0.048,-1.16495 0.28494,-1.4019 0.60416,-0.60417 0.28887,0.72187 0.25335,1.58438 -0.0789,1.91667 -0.33229,0.33229 -0.56864,-0.25834 -0.52522,-1.3125 z m -210.74274,-8.41667 c 0,-4.125 0.17651,-5.8125 0.39226,-3.75 0.21574,2.0625 0.21574,5.4375 0,7.5 -0.21575,2.0625 -0.39226,0.375 -0.39226,-3.75 z m 211.97366,-0.5 c 0.006,-3.3 0.1923,-4.52944 0.41486,-2.73209 0.22256,1.79735 0.21797,4.49735 -0.0102,6 -0.22818,1.50265 -0.41027,0.0321 -0.40466,-3.26791 z m 118.84802,3.5 c 0,-1.375 0.22698,-1.9375 0.50439,-1.25 0.27741,0.6875 0.27741,1.8125 0,2.5 -0.27741,0.6875 -0.50439,0.125 -0.50439,-1.25 z m -89.84802,-5.5 c 0.006,-3.3 0.1923,-4.52944 0.41486,-2.73209 0.22256,1.79735 0.21797,4.49735 -0.0102,6 -0.22818,1.50265 -0.41027,0.0321 -0.40466,-3.26791 z m 89.76908,-6.08333 c 0.048,-1.16495 0.28494,-1.4019 0.60416,-0.60417 0.28887,0.72187 0.25335,1.58438 -0.0789,1.91667 -0.33229,0.33229 -0.56864,-0.25834 -0.52522,-1.3125 z m -120,-1 c 0.048,-1.16495 0.28494,-1.4019 0.60416,-0.60417 0.28887,0.72187 0.25335,1.58438 -0.0789,1.91667 -0.33229,0.33229 -0.56864,-0.25834 -0.52522,-1.3125 z m -210,-1 c 0.048,-1.16495 0.28494,-1.4019 0.60416,-0.60417 0.28887,0.72187 0.25335,1.58438 -0.0789,1.91667 -0.33229,0.33229 -0.56864,-0.25834 -0.52522,-1.3125 z m 2.92105,-8.05887 c 0,-0.53655 0.69982,-1.84905 1.55517,-2.91667 1.46637,-1.83031 1.48719,-1.7984 0.36454,0.55887 -1.45781,3.06103 -1.91971,3.62834 -1.91971,2.3578 z m 199.99691,-6.6078 c -1.47225,-2.0111 -1.71373,-2.70955 -0.63346,-1.83224 1.63978,1.3317 4.1192,5.08224 3.35979,5.08224 -0.19092,0 -1.41777,-1.4625 -2.72633,-3.25 z m -195.25652,-1.25 c 1.13524,-1.65 3.33292,-4.125 4.88373,-5.5 1.87276,-1.66045 1.52249,-0.98881 -1.04303,2 -5.24154,6.10635 -6.29348,7.06498 -3.8407,3.5 z m 190.6646,-4.75 -1.90499,-2.25 2.25,1.90499 c 2.11444,1.79022 2.70524,2.59501 1.90499,2.59501 -0.18976,0 -1.20226,-1.0125 -2.25,-2.25 z m 121.46745,-0.5 c -1.24387,-1.58606 -1.2085,-1.62143 0.37756,-0.37756 0.9625,0.75485 1.75,1.54235 1.75,1.75 0,0.82304 -0.82119,0.29331 -2.12756,-1.37244 z m -66.37244,-3.25 c 2.14824,-2.2 4.1309,-4 4.4059,-4 0.275,0 -1.25766,1.8 -3.4059,4 -2.14824,2.2 -4.1309,4 -4.4059,4 -0.275,0 1.25766,-1.8 3.4059,-4 z m -59.62756,0.25 c -1.24387,-1.58606 -1.2085,-1.62143 0.37756,-0.37756 1.66575,1.30637 2.19548,2.12756 1.37244,2.12756 -0.20765,0 -0.99515,-0.7875 -1.75,-1.75 z m -177.43987,-0.1409 c 0.71346,-1.15439 4.56743,-3.48267 4.56743,-2.75929 0,0.23109 -1.18041,1.1936 -2.62312,2.13891 -1.44272,0.9453 -2.31766,1.22448 -1.94431,0.62038 z m 173.00856,-2.66427 c -1.86402,-1.49339 -1.85176,-1.51185 0.30887,-0.46481 1.2375,0.59969 2.25,1.29951 2.25,1.55516 0,0.76522 -0.51861,0.54424 -2.55887,-1.09035 z m 124.43131,-0.19483 c -1.24387,-1.58606 -1.2085,-1.62143 0.37756,-0.37756 0.9625,0.75485 1.75,1.54235 1.75,1.75 0,0.82304 -0.82119,0.29331 -2.12756,-1.37244 z m -281.12244,-4.91228 c 0.6875,-0.27741 1.8125,-0.27741 2.5,0 0.6875,0.27741 0.125,0.50439 -1.25,0.50439 -1.375,0 -1.9375,-0.22698 -1.25,-0.50439 z m 143,0 c 0.6875,-0.27741 1.8125,-0.27741 2.5,0 0.6875,0.27741 0.125,0.50439 -1.25,0.50439 -1.375,0 -1.9375,-0.22698 -1.25,-0.50439 z m -103.92697,-1.08737 c 18.87767,-0.15223 49.47767,-0.15214 68,1.9e-4 18.52233,0.15233 3.07697,0.27689 -34.32303,0.27678 -37.4,-10e-5 -52.55464,-0.12474 -33.67697,-0.27697 z m 205.92697,-3.91263 c 0.6875,-0.27741 1.8125,-0.27741 2.5,0 0.6875,0.27741 0.125,0.50439 -1.25,0.50439 -1.375,0 -1.9375,-0.22698 -1.25,-0.50439 z m 13,0 c 0.6875,-0.27741 1.8125,-0.27741 2.5,0 0.6875,0.27741 0.125,0.50439 -1.25,0.50439 -1.375,0 -1.9375,-0.22698 -1.25,-0.50439 z m -252.5,-38.05397 c 1.5125,-0.22913 3.9875,-0.22913 5.5,0 1.5125,0.22912 0.275,0.41659 -2.75,0.41659 -3.025,0 -4.2625,-0.18747 -2.75,-0.41659 z m 123.51791,-0.008 c 1.79735,-0.22256 4.49735,-0.21797 6,0.0102 1.50265,0.22818 0.0321,0.41027 -3.26791,0.40466 -3.3,-0.006 -4.52944,-0.1923 -2.73209,-0.41486 z m -130.95541,-0.95886 c 0.72187,-0.28887 1.58438,-0.25335 1.91667,0.0789 0.33229,0.33229 -0.25834,0.56864 -1.3125,0.52522 -1.16495,-0.048 -1.4019,-0.28494 -0.60417,-0.60416 z m 19,0 c 0.72187,-0.28887 1.58438,-0.25335 1.91667,0.0789 0.33229,0.33229 -0.25834,0.56864 -1.3125,0.52522 -1.16495,-0.048 -1.4019,-0.28494 -0.60417,-0.60416 z m 100.6875,-0.78078 c -3.94398,-1.80591 -3.05206,-1.83725 2.5,-0.0878 2.475,0.77986 3.6,1.42773 2.5,1.43972 -1.1,0.012 -3.35,-0.59636 -5,-1.35189 z m 22.3125,0.78078 c 0.72187,-0.28887 1.58438,-0.25335 1.91667,0.0789 0.33229,0.33229 -0.25834,0.56864 -1.3125,0.52522 -1.16495,-0.048 -1.4019,-0.28494 -0.60417,-0.60416 z m -116.72917,-1.68971 c 1.02905,-0.92077 6.91667,-3.62641 6.91667,-3.17854 0,0.57598 -5.54382,3.55136 -6.61701,3.55136 -0.39398,0 -0.52882,-0.16777 -0.29966,-0.37282 z m -35.6422,-2.18235 c -1.83031,-1.46637 -1.7984,-1.48719 0.55887,-0.36454 3.06103,1.45781 3.62834,1.91971 2.3578,1.91971 -0.53655,0 -1.84905,-0.69982 -2.91667,-1.55517 z m 121.291,-0.98088 c -2.05267,-1.39483 -3.73213,-2.77547 -3.73213,-3.0681 0,-0.29262 1.2375,0.32998 2.75,1.38356 1.5125,1.05358 3.65,2.42053 4.75,3.03768 1.1,0.61715 1.54196,1.13578 0.98213,1.1525 -0.55982,0.0167 -2.69732,-1.11081 -4.75,-2.50564 z m 42.26787,1.10642 c 0,-0.275 0.9,-0.98167 2,-1.57037 1.1,-0.5887 2,-0.84537 2,-0.57037 0,0.275 -0.9,0.98167 -2,1.57037 -1.1,0.5887 -2,0.84537 -2,0.57037 z m 74.87244,-2.32037 c -1.24387,-1.58606 -1.2085,-1.62143 0.37756,-0.37756 0.9625,0.75485 1.75,1.54235 1.75,1.75 0,0.82304 -0.82119,0.29331 -2.12756,-1.37244 z m -64.39337,-6.25 c 3.25531,-3.575 6.11519,-6.725 6.35529,-7 0.2401,-0.275 -0.0406,0.4 -0.62373,1.5 -0.58316,1.1 -3.44304,4.25 -6.35529,7 l -5.29501,5 z m -184.02612,0.75 -3.95295,-4.25 4.25,3.95295 c 2.3375,2.17412 4.25,4.08662 4.25,4.25 0,0.75658 -0.87085,-4.9e-4 -4.54705,-3.95295 z m 60.04705,0.25 c 2.14824,-2.2 4.1309,-4 4.4059,-4 0.275,0 -1.25766,1.8 -3.4059,4 -2.14824,2.2 -4.1309,4 -4.4059,4 -0.275,0 1.25766,-1.8 3.4059,-4 z m 62.93709,-0.25 -2.93709,-3.25 3.25,2.93709 c 3.02946,2.73778 3.70965,3.56291 2.93709,3.56291 -0.1721,0 -1.6346,-1.4625 -3.25,-3.25 z m 118.43535,-1.5 c -1.24387,-1.58606 -1.2085,-1.62143 0.37756,-0.37756 1.66575,1.30637 2.19548,2.12756 1.37244,2.12756 -0.20765,0 -0.99515,-0.7875 -1.75,-1.75 z m -122.5943,-3.5 c -1.49918,-1.93844 -2.44224,-3.75 -1.95217,-3.75 0.24421,0 1.18114,1.125 2.08207,2.5 1.68584,2.57291 1.59195,3.47635 -0.1299,1.25 z m -124.03071,-1 c -1.493,-1.87099 -4.44416,-7.88661 -4.05832,-8.27244 0.18512,-0.18512 1.51944,1.8817 2.96517,4.59293 2.63628,4.94393 2.95311,6.01038 1.09315,3.67951 z m 72.60472,-3.69156 c 1.44219,-2.7046 2.77184,-4.76779 2.95477,-4.58485 0.47719,0.47718 -3.60403,8.28299 -4.67764,8.94651 -0.49462,0.30569 0.28067,-1.65706 1.72287,-4.36166 z m 127.2268,-9.64177 c 0.048,-1.16495 0.28494,-1.4019 0.60416,-0.60417 0.28887,0.72187 0.25335,1.58438 -0.0789,1.91667 -0.33229,0.33229 -0.56864,-0.25834 -0.52522,-1.3125 z m -205.92106,-1.41667 c 0,-1.375 0.22698,-1.9375 0.50439,-1.25 0.27741,0.6875 0.27741,1.8125 0,2.5 -0.27741,0.6875 -0.50439,0.125 -0.50439,-1.25 z m 82.92106,0.41667 c 0.048,-1.16495 0.28494,-1.4019 0.60416,-0.60417 0.28887,0.72187 0.25335,1.58438 -0.0789,1.91667 -0.33229,0.33229 -0.56864,-0.25834 -0.52522,-1.3125 z m 40.07894,-1.41667 c 0,-1.375 0.22698,-1.9375 0.50439,-1.25 0.27741,0.6875 0.27741,1.8125 0,2.5 -0.27741,0.6875 -0.50439,0.125 -0.50439,-1.25 z m 84.17832,-8 c 0,-4.125 0.17651,-5.8125 0.39226,-3.75 0.21574,2.0625 0.21574,5.4375 0,7.5 -0.21575,2.0625 -0.39226,0.375 -0.39226,-3.75 z m 125.74274,5.41667 c 0.048,-1.16495 0.28494,-1.4019 0.60416,-0.60417 0.28887,0.72187 0.25335,1.58438 -0.0789,1.91667 -0.33229,0.33229 -0.56864,-0.25834 -0.52522,-1.3125 z m -89.75888,-5.41667 c 0,-3.575 0.1815,-5.0375 0.40333,-3.25 0.22182,1.7875 0.22182,4.7125 0,6.5 -0.22183,1.7875 -0.40333,0.325 -0.40333,-3.25 z m -244.02041,0 c 0,-3.025 0.18747,-4.2625 0.41659,-2.75 0.22913,1.5125 0.22913,3.9875 0,5.5 -0.22912,1.5125 -0.41659,0.275 -0.41659,-2.75 z m 85,0 c 0,-3.025 0.18747,-4.2625 0.41659,-2.75 0.22913,1.5125 0.22913,3.9875 0,5.5 -0.22912,1.5125 -0.41659,0.275 -0.41659,-2.75 z m 37.93234,0 c 0,-1.925 0.2058,-2.7125 0.45733,-1.75 0.25152,0.9625 0.25152,2.5375 0,3.5 -0.25153,0.9625 -0.45733,0.175 -0.45733,-1.75 z m 210.84695,-5.58333 c 0.048,-1.16495 0.28494,-1.4019 0.60416,-0.60417 0.28887,0.72187 0.25335,1.58438 -0.0789,1.91667 -0.33229,0.33229 -0.56864,-0.25834 -0.52522,-1.3125 z m -209.92106,-2.41667 c 0,-1.375 0.22698,-1.9375 0.50439,-1.25 0.27741,0.6875 0.27741,1.8125 0,2.5 -0.27741,0.6875 -0.50439,0.125 -0.50439,-1.25 z m -123,-1 c 0,-1.375 0.22698,-1.9375 0.50439,-1.25 0.27741,0.6875 0.27741,1.8125 0,2.5 -0.27741,0.6875 -0.50439,0.125 -0.50439,-1.25 z m 82.92106,-0.58333 c 0.048,-1.16495 0.28494,-1.4019 0.60416,-0.60417 0.28887,0.72187 0.25335,1.58438 -0.0789,1.91667 -0.33229,0.33229 -0.56864,-0.25834 -0.52522,-1.3125 z m 123,-1 c 0.048,-1.16495 0.28494,-1.4019 0.60416,-0.60417 0.28887,0.72187 0.25335,1.58438 -0.0789,1.91667 -0.33229,0.33229 -0.56864,-0.25834 -0.52522,-1.3125 z M 289.75366,561.7071 c 0,-1.22561 3.92792,-8.46425 4.92856,-9.08268 0.52642,-0.32534 -0.2182,1.55662 -1.65472,4.18216 -2.96906,5.42656 -3.27384,5.88278 -3.27384,4.90052 z m 76.85215,-4.68527 c -1.4422,-2.7046 -2.21749,-4.66735 -1.72287,-4.36166 1.07361,0.66352 5.15483,8.46933 4.67764,8.94651 -0.18293,0.18294 -1.51258,-1.88025 -2.95477,-4.58485 z m 124.71214,2.35157 c -0.54268,-1.4252 -0.42782,-1.54006 0.5598,-0.5598 0.68342,0.67834 0.99067,1.48524 0.68278,1.79313 -0.30789,0.30789 -0.86705,-0.24711 -1.24258,-1.23333 z m -74.71706,-4.79313 c 1.68201,-3.51284 8.81724,-10.9393 12.29188,-12.79357 3.11139,-1.66042 3.1753,-1.66244 0.86089,-0.0272 -3.23665,2.28685 -8.97325,8.01054 -11.84742,11.82076 -1.24464,1.65 -1.83205,2.1 -1.30535,1 z m 69.71884,-3.25003 c -2.16115,-2.76224 -2.3343,-3.22612 -0.65738,-1.76116 2.00484,1.75144 4.64945,5.51124 3.87649,5.51116 -0.15685,-2e-5 -1.60545,-1.68752 -3.21911,-3.75 z m -187.06607,-4.24997 c 2.14824,-2.2 4.1309,-4 4.4059,-4 0.275,0 -1.25766,1.8 -3.4059,4 -2.14824,2.2 -4.1309,4 -4.4059,4 -0.275,0 1.25766,-1.8 3.4059,-4 z m 59.95295,-0.25 -3.95295,-4.25 4.25,3.95295 c 3.95246,3.6762 4.70953,4.54705 3.95295,4.54705 -0.16338,0 -2.07588,-1.9125 -4.25,-4.25 z m 180.54705,2.87244 c 0,-0.20765 0.7875,-0.99515 1.75,-1.75 1.58606,-1.24387 1.62143,-1.2085 0.37756,0.37756 -1.30637,1.66575 -2.12756,2.19548 -2.12756,1.37244 z m -60.07569,-5.37244 -2.42431,-2.75 2.75,2.42431 c 2.57029,2.26589 3.20859,3.07569 2.42431,3.07569 -0.17912,0 -1.41662,-1.2375 -2.75,-2.75 z m -174.34441,-2.37928 c 0.66352,-1.07361 8.46933,-5.15483 8.94651,-4.67764 0.18294,0.18293 -1.88025,1.51258 -4.58485,2.95477 -2.7046,1.4422 -4.66735,2.21749 -4.36166,1.72287 z m 43.9201,-1.95472 c -2.75,-1.57811 -4.64457,-2.87979 -4.21016,-2.89264 1.28864,-0.0381 8.52174,3.86276 9.20133,4.96235 0.78773,1.27457 0.96384,1.3476 -4.99117,-2.06971 z m 197.5,2.70644 c 0,-0.20765 0.7875,-0.99515 1.75,-1.75 1.58606,-1.24387 1.62143,-1.2085 0.37756,0.37756 -1.30637,1.66575 -2.12756,2.19548 -2.12756,1.37244 z m -72.55887,-2.17761 c -1.86402,-1.49339 -1.85176,-1.51185 0.30887,-0.46481 1.2375,0.59969 2.25,1.29951 2.25,1.55516 0,0.76522 -0.51861,0.54424 -2.55887,-1.09035 z m -154.62863,-5.12794 c 0.72187,-0.28887 1.58438,-0.25335 1.91667,0.0789 0.33229,0.33229 -0.25834,0.56864 -1.3125,0.52522 -1.16495,-0.048 -1.4019,-0.28494 -0.60417,-0.60416 z m 19,0 c 0.72187,-0.28887 1.58438,-0.25335 1.91667,0.0789 0.33229,0.33229 -0.25834,0.56864 -1.3125,0.52522 -1.16495,-0.048 -1.4019,-0.28494 -0.60417,-0.60416 z m 103.9375,0.0208 c 0.6875,-0.27741 1.8125,-0.27741 2.5,0 0.6875,0.27741 0.125,0.50439 -1.25,0.50439 -1.375,0 -1.9375,-0.22698 -1.25,-0.50439 z m 19.0625,-0.0208 c 0.72187,-0.28887 1.58438,-0.25335 1.91667,0.0789 0.33229,0.33229 -0.25834,0.56864 -1.3125,0.52522 -1.16495,-0.048 -1.4019,-0.28494 -0.60417,-0.60416 z m -134.5625,-1.03314 c 1.5125,-0.22913 3.9875,-0.22913 5.5,0 1.5125,0.22912 0.275,0.41659 -2.75,0.41659 -3.025,0 -4.2625,-0.18747 -2.75,-0.41659 z m 123,0 c 1.5125,-0.22913 3.9875,-0.22913 5.5,0 1.5125,0.22912 0.275,0.41659 -2.75,0.41659 -3.025,0 -4.2625,-0.18747 -2.75,-0.41659 z m 118.5625,-34.96686 c 0.72187,-0.28887 1.58438,-0.25335 1.91667,0.0789 0.33229,0.33229 -0.25834,0.56864 -1.3125,0.52522 -1.16495,-0.048 -1.4019,-0.28494 -0.60417,-0.60416 z m 13,0 c 0.72187,-0.28887 1.58438,-0.25335 1.91667,0.0789 0.33229,0.33229 -0.25834,0.56864 -1.3125,0.52522 -1.16495,-0.048 -1.4019,-0.28494 -0.60417,-0.60416 z m -254.0625,-1.97917 c 0.6875,-0.27741 1.8125,-0.27741 2.5,0 0.6875,0.27741 0.125,0.50439 -1.25,0.50439 -1.375,0 -1.9375,-0.22698 -1.25,-0.50439 z m 124,0 c 0.6875,-0.27741 1.8125,-0.27741 2.5,0 0.6875,0.27741 0.125,0.50439 -1.25,0.50439 -1.375,0 -1.9375,-0.22698 -1.25,-0.50439 z m -131,-1 c 0.6875,-0.27741 1.8125,-0.27741 2.5,0 0.6875,0.27741 0.125,0.50439 -1.25,0.50439 -1.375,0 -1.9375,-0.22698 -1.25,-0.50439 z m 15,0 c 0.6875,-0.27741 1.8125,-0.27741 2.5,0 0.6875,0.27741 0.125,0.50439 -1.25,0.50439 -1.375,0 -1.9375,-0.22698 -1.25,-0.50439 z m 108,0 c 0.6875,-0.27741 1.8125,-0.27741 2.5,0 0.6875,0.27741 0.125,0.50439 -1.25,0.50439 -1.375,0 -1.9375,-0.22698 -1.25,-0.50439 z m 15.51903,-0.0307 c 0.97297,-0.25354 2.32297,-0.23687 3,0.0371 0.67703,0.27393 -0.11903,0.48137 -1.76903,0.46099 -1.65,-0.0204 -2.20394,-0.2445 -1.23097,-0.49804 z m -142.45653,-0.99013 c 0.72187,-0.28887 1.58438,-0.25335 1.91667,0.0789 0.33229,0.33229 -0.25834,0.56864 -1.3125,0.52522 -1.16495,-0.048 -1.4019,-0.28494 -0.60417,-0.60416 z m 24.6875,-0.31689 c 2.74909,-1.18132 4.32797,-1.18132 2.5,0 -0.825,0.53316 -2.175,0.94464 -3,0.9144 -0.98906,-0.0362 -0.81874,-0.34772 0.5,-0.9144 z m 126.5,-1 c 0.825,-0.53316 1.95,-0.96937 2.5,-0.96937 0.55,0 0.325,0.43621 -0.5,0.96937 -0.825,0.53316 -1.95,0.96937 -2.5,0.96937 -0.55,0 -0.325,-0.43621 0.5,-0.96937 z m -159.25,-1.57197 c -3.87722,-2.10343 -3.43809,-2.82933 0.5,-0.82653 3.76952,1.91707 4.43665,2.41393 3.16667,2.35846 -0.50417,-0.022 -2.15417,-0.71139 -3.66667,-1.53193 z m 37.33333,1.20742 c 0.22917,-0.2005 1.54167,-0.90032 2.91667,-1.55516 2.35727,-1.12265 2.38918,-1.10183 0.55887,0.36454 -1.593,1.27626 -4.84786,2.39128 -3.47554,1.19062 z m 86.3578,-1.19062 c -1.83031,-1.46637 -1.7984,-1.48719 0.55887,-0.36454 3.06103,1.45781 3.62834,1.91971 2.3578,1.91971 -0.53655,0 -1.84905,-0.69982 -2.91667,-1.55517 z m 39.55887,0.12554 c 0,-0.275 0.9,-0.98167 2,-1.57037 1.1,-0.5887 2,-0.84537 2,-0.57037 0,0.275 -0.9,0.98167 -2,1.57037 -1.1,0.5887 -2,0.84537 -2,0.57037 z m -170.07569,-5.32037 -2.42431,-2.75 2.75,2.42431 c 2.57029,2.26589 3.20859,3.07569 2.42431,3.07569 -0.17912,0 -1.41662,-1.2375 -2.75,-2.75 z m 176.57569,0.75 c 0.99549,-1.1 2.03498,-2 2.30998,-2 0.275,0 -0.31449,0.9 -1.30998,2 -0.99549,1.1 -2.03498,2 -2.30998,2 -0.275,0 0.31449,-0.9 1.30998,-2 z m -119.54179,-3.25 c 2.45201,-2.6125 4.58951,-4.75 4.75,-4.75 0.75088,0 -0.043,0.89783 -4.45821,5.04179 l -4.75,4.45821 z m 62.81446,-0.56195 c -2.47556,-2.64658 -5.02514,-5.90908 -5.66573,-7.25 l -1.16471,-2.43805 1.77592,2.5 c 0.97676,1.375 3.75133,4.6375 6.16573,7.25 2.41439,2.6125 4.1648,4.75 3.8898,4.75 -0.275,0 -2.52545,-2.16538 -5.00101,-4.81195 z m 61.22733,-0.0137 c 0,-0.45412 1.19626,-1.91662 2.65836,-3.25 l 2.65836,-2.42431 -2.34642,3.25 c -2.44069,3.38058 -2.9703,3.81284 -2.9703,2.42431 z m -186.72069,-2.42431 c -2.52532,-2.74582 -6.27489,-8.88183 -6.26353,-10.25 0.005,-0.55 1.16134,1.025 2.5706,3.5 1.40926,2.475 3.50728,5.5125 4.66227,6.75 1.15499,1.2375 1.87498,2.25 1.59998,2.25 -0.275,0 -1.4312,-1.0125 -2.56932,-2.25 z m 193.92229,-8.22806 c 1.19659,-2.46293 2.34713,-4.30654 2.55677,-4.09691 0.45238,0.45239 -3.58827,8.57497 -4.2657,8.57497 -0.25667,0 0.51235,-2.01513 1.70893,-4.47806 z m -201.57806,-5.0606 c -0.34295,-0.8937 -0.59502,-2.15061 -0.56015,-2.79313 0.0349,-0.64251 0.49453,-0.0904 1.02148,1.22697 0.52695,1.31735 0.77902,2.57426 0.56015,2.79313 -0.21887,0.21887 -0.67854,-0.33327 -1.02148,-1.22697 z m 123,-1 c -0.34295,-0.8937 -0.59502,-2.15061 -0.56015,-2.79313 0.0349,-0.64251 0.49453,-0.0904 1.02148,1.22697 0.52695,1.31735 0.77902,2.57426 0.56015,2.79313 -0.21887,0.21887 -0.67854,-0.33327 -1.02148,-1.22697 z m 81.45541,-1.04467 c 0.048,-1.16495 0.28494,-1.4019 0.60416,-0.60417 0.28887,0.72187 0.25335,1.58438 -0.0789,1.91667 -0.33229,0.33229 -0.56864,-0.25834 -0.52522,-1.3125 z m -123,-1 c 0.048,-1.16495 0.28494,-1.4019 0.60416,-0.60417 0.28887,0.72187 0.25335,1.58438 -0.0789,1.91667 -0.33229,0.33229 -0.56864,-0.25834 -0.52522,-1.3125 z m -82.884,-3.91667 c 0.0204,-1.65 0.2445,-2.20394 0.49804,-1.23097 0.25354,0.97297 0.23687,2.32297 -0.0371,3 -0.27393,0.67703 -0.48137,-0.11903 -0.46099,-1.76903 z m 206.96294,0.5 c 0,-1.375 0.22698,-1.9375 0.50439,-1.25 0.27741,0.6875 0.27741,1.8125 0,2.5 -0.27741,0.6875 -0.50439,0.125 -0.50439,-1.25 z m 36.92106,0.41667 c 0.048,-1.16495 0.28494,-1.4019 0.60416,-0.60417 0.28887,0.72187 0.25335,1.58438 -0.0789,1.91667 -0.33229,0.33229 -0.56864,-0.25834 -0.52522,-1.3125 z m 89,0 c 0.048,-1.16495 0.28494,-1.4019 0.60416,-0.60417 0.28887,0.72187 0.25335,1.58438 -0.0789,1.91667 -0.33229,0.33229 -0.56864,-0.25834 -0.52522,-1.3125 z m -248.84695,-2.41667 c 0,-1.925 0.2058,-2.7125 0.45733,-1.75 0.25152,0.9625 0.25152,2.5375 0,3.5 -0.25153,0.9625 -0.45733,0.175 -0.45733,-1.75 z m 39.11081,-5.5 c 0.004,-4.4 0.17944,-6.07561 0.39069,-3.72357 0.21124,2.35204 0.20827,5.95204 -0.007,8 -0.21487,2.04796 -0.38771,0.12357 -0.38408,-4.27643 z m -39.11081,-5.5 c 0,-1.925 0.2058,-2.7125 0.45733,-1.75 0.25152,0.9625 0.25152,2.5375 0,3.5 -0.25153,0.9625 -0.45733,0.175 -0.45733,-1.75 z m -84.07411,-1 c 0,-1.375 0.22698,-1.9375 0.50439,-1.25 0.27741,0.6875 0.27741,1.8125 0,2.5 -0.27741,0.6875 -0.50439,0.125 -0.50439,-1.25 z m 207,-1 c 0,-1.375 0.22698,-1.9375 0.50439,-1.25 0.27741,0.6875 0.27741,1.8125 0,2.5 -0.27741,0.6875 -0.50439,0.125 -0.50439,-1.25 z m 36.92106,-0.58333 c 0.048,-1.16495 0.28494,-1.4019 0.60416,-0.60417 0.28887,0.72187 0.25335,1.58438 -0.0789,1.91667 -0.33229,0.33229 -0.56864,-0.25834 -0.52522,-1.3125 z m 89,0 c 0.048,-1.16495 0.28494,-1.4019 0.60416,-0.60417 0.28887,0.72187 0.25335,1.58438 -0.0789,1.91667 -0.33229,0.33229 -0.56864,-0.25834 -0.52522,-1.3125 z m -209,-2 c 0.048,-1.16495 0.28494,-1.4019 0.60416,-0.60417 0.28887,0.72187 0.25335,1.58438 -0.0789,1.91667 -0.33229,0.33229 -0.56864,-0.25834 -0.52522,-1.3125 z m -41,-0.0849 c -0.0434,-0.64252 -0.33793,-1.99252 -0.65446,-3 -0.54705,-1.74122 -0.51883,-1.7434 0.57078,-0.0441 0.63045,0.98322 0.92496,2.33322 0.65445,3 -0.35498,0.87499 -0.51379,0.88727 -0.57077,0.0441 z m -3.38355,-8.84435 c -0.91467,-1.91807 -1.45688,-3.48742 -1.2049,-3.48742 0.68426,0 3.71992,6.12291 3.26246,6.58037 -0.21698,0.21698 -1.14288,-1.17483 -2.05756,-3.09293 z m 46.3046,3.12959 c 0,-1.07319 2.97538,-6.61701 3.55136,-6.61701 0.275,0 -0.24379,1.4625 -1.15286,3.25 -1.85623,3.6499 -2.3985,4.41113 -2.3985,3.36701 z m 76.56429,-4.32388 c -0.54268,-1.4252 -0.42782,-1.54006 0.5598,-0.5598 0.68342,0.67834 0.99067,1.48524 0.68278,1.79313 -0.30789,0.30789 -0.86705,-0.24711 -1.24258,-1.23333 z M 292.72385,432.136 c 0.57231,-1.06937 1.53482,-2.24977 2.13891,-2.62312 0.6041,-0.37335 0.32492,0.50159 -0.62038,1.94431 -2.00162,3.05486 -3.03812,3.51819 -1.51853,0.67881 z m 67.54946,-5.80569 c -2.14713,-2.6125 -2.86885,-3.85 -1.60383,-2.75 2.23578,1.94413 6.57976,7.5 5.86404,7.5 -0.19599,0 -2.11308,-2.1375 -4.26021,-4.75 z m 59.46936,0.76388 c 1.73639,-2.19237 3.67933,-4.3089 4.31765,-4.70341 0.63833,-0.3945 -0.57375,1.39925 -2.6935,3.98613 -2.11975,2.58687 -4.06269,4.7034 -4.31765,4.7034 -0.25496,0 0.95711,-1.79376 2.6935,-3.98612 z m 62.46394,-2.26388 -3.95295,-4.25 4.25,3.95295 c 3.95246,3.6762 4.70953,4.54705 3.95295,4.54705 -0.16338,0 -2.07588,-1.9125 -4.25,-4.25 z m -183.45295,-0.25 c 1.86578,-1.925 3.61733,-3.5 3.89233,-3.5 0.275,0 -1.02655,1.575 -2.89233,3.5 -1.86578,1.925 -3.61733,3.5 -3.89233,3.5 -0.275,0 1.02655,-1.575 2.89233,-3.5 z m 244.95821,-1.75 c 2.45201,-2.6125 4.58951,-4.75 4.75,-4.75 0.75088,0 -0.043,0.89783 -4.45821,5.04179 l -4.75,4.45821 z m 65.44678,2 -1.90499,-2.25 2.25,1.90499 c 1.2375,1.04774 2.25,2.06024 2.25,2.25 0,0.80025 -0.80479,0.20945 -2.59501,-1.90499 z m -255.53255,-4.5 c -1.24387,-1.58606 -1.2085,-1.62143 0.37756,-0.37756 1.66575,1.30637 2.19548,2.12756 1.37244,2.12756 -0.20765,0 -0.99515,-0.7875 -1.75,-1.75 z m 72.66941,0.68228 c 0.72607,-1.17481 9.44254,-6.29172 9.8865,-5.80377 0.18591,0.20432 -2.08885,1.79818 -5.055,3.54191 -2.96616,1.74373 -5.14033,2.76157 -4.8315,2.26186 z m 177.86314,-1.18228 -1.90499,-2.25 2.25,1.90499 c 1.2375,1.04774 2.25,2.06024 2.25,2.25 0,0.80025 -0.80479,0.20945 -2.59501,-1.90499 z m -299.82509,0.12072 c 0.66352,-1.07361 8.46933,-5.15483 8.94651,-4.67764 0.18294,0.18293 -1.88025,1.51258 -4.58485,2.95477 -2.7046,1.4422 -4.66735,2.21749 -4.36166,1.72287 z m 170.4201,-0.96007 c -2.15377,-1.76168 -2.1961,-1.89635 -0.30569,-0.97239 1.20687,0.58987 2.47092,1.52008 2.80901,2.06712 0.90258,1.4604 0.29641,1.19531 -2.50332,-1.09473 z m -127,-1.91065 c -1.925,-1.05389 -3.14015,-1.93503 -2.70034,-1.95808 1.0597,-0.0555 6.70034,2.87723 6.70034,3.48376 0,0.65451 -0.0585,0.63219 -4,-1.52568 z m 119.5,-1.53611 c -1.65,-0.75553 -2.325,-1.37803 -1.5,-1.38335 0.825,-0.005 2.625,0.63344 4,1.41946 3.1616,1.80734 1.47266,1.78294 -2.5,-0.0361 z m -128.6875,-2.147 c 0.72187,-0.28887 1.58438,-0.25335 1.91667,0.0789 0.33229,0.33229 -0.25834,0.56864 -1.3125,0.52522 -1.16495,-0.048 -1.4019,-0.28494 -0.60417,-0.60416 z m 103,0 c 0.72187,-0.28887 1.58438,-0.25335 1.91667,0.0789 0.33229,0.33229 -0.25834,0.56864 -1.3125,0.52522 -1.16495,-0.048 -1.4019,-0.28494 -0.60417,-0.60416 z m -116.0848,-1.03862 c 1.77523,-0.22091 4.92523,-0.22454 7,-0.008 2.07476,0.21648 0.6223,0.39722 -3.2277,0.40166 -3.85,0.004 -5.54754,-0.17268 -3.7723,-0.39359 z m 123,0 c 1.77523,-0.22091 4.92523,-0.22454 7,-0.008 2.07476,0.21648 0.6223,0.39722 -3.2277,0.40166 -3.85,0.004 -5.54754,-0.17268 -3.7723,-0.39359 z m 124.5223,-2.99452 c 1.5125,-0.22913 3.9875,-0.22913 5.5,0 1.5125,0.22912 0.275,0.41659 -2.75,0.41659 -3.025,0 -4.2625,-0.18747 -2.75,-0.41659 z M 306.69245,370.72368 c -7.60198,-2.06392 -13.49168,-7.24571 -16.54767,-14.5587 -2.21288,-5.29545 -2.10375,-104.44337 0.12082,-109.76752 2.52487,-6.04286 6.10442,-9.94712 11.65644,-12.71381 l 5.22431,-2.60338 h 147.33577 c 122.74497,0 147.88499,0.22948 150.62639,1.3749 5.18213,2.16524 10.75365,7.66299 13.29384,13.11782 l 2.33177,5.00728 -0.0341,50.5 c -0.026,38.49564 -0.33919,51.35343 -1.31746,54.0902 -2.00715,5.61512 -6.15368,10.32873 -11.87455,13.49851 l -5.25435,2.91129 -145.5,0.19088 c -113.04235,0.14831 -146.5175,-0.0854 -150.06121,-1.04747 z M 657.98566,238.08027 c 0,-1.925 0.2058,-2.7125 0.45733,-1.75 0.25152,0.9625 0.25152,2.5375 0,3.5 -0.25153,0.9625 -0.45733,0.175 -0.45733,-1.75 z m -407.07411,-1 c 0,-1.375 0.22698,-1.9375 0.50439,-1.25 0.27741,0.6875 0.27741,1.8125 0,2.5 -0.27741,0.6875 -0.50439,0.125 -0.50439,-1.25 z m 405.92106,-4.58333 c 0.048,-1.16495 0.28494,-1.4019 0.60416,-0.60417 0.28887,0.72187 0.25335,1.58437 -0.0789,1.91667 -0.33229,0.33229 -0.56864,-0.25834 -0.52522,-1.3125 z m -404,-4 c 0.048,-1.16495 0.28494,-1.4019 0.60416,-0.60417 0.28887,0.72187 0.25335,1.58437 -0.0789,1.91667 -0.33229,0.33229 -0.56864,-0.25834 -0.52522,-1.3125 z m 402.54459,-0.95533 c -0.96498,-2.51469 -0.68031,-3.16355 0.49853,-1.13634 0.58369,1.00375 0.8506,2.03566 0.59313,2.29313 -0.25747,0.25747 -0.74872,-0.26309 -1.09166,-1.15679 z m -400.62354,-3.84433 c 0,-1.07319 2.97538,-6.61701 3.55136,-6.61701 0.275,0 -0.24379,1.4625 -1.15286,3.25 -1.85623,3.6499 -2.3985,4.41113 -2.3985,3.36701 z m 398.14426,-2.36701 c -1.0912,-2.55004 -1.06651,-2.60886 0.33949,-0.80887 0.83394,1.06762 1.51625,2.30512 1.51625,2.75 0,1.51991 -0.67833,0.81036 -1.85574,-1.94113 z m -3.27752,-5.5 c -0.662,-1.2375 -3.70087,-4.95 -6.75305,-8.25 l -5.54941,-6 5.50638,5.25699 c 4.9315,4.70814 9.88427,11.24301 8.52106,11.24301 -0.28674,0 -1.06299,-1.0125 -1.72498,-2.25 z m -389.10987,-2.25 c 1.14429,-1.65 4.24215,-5.025 6.88413,-7.5 4.26949,-3.99966 4.14703,-3.77728 -1.10133,2 -7.90041,8.69659 -8.19205,8.97396 -5.7828,5.5 z M 631.19479,198.5251 c -1.86402,-1.49339 -1.85176,-1.51185 0.30887,-0.46481 1.2375,0.59969 2.25,1.29951 2.25,1.55516 0,0.76522 -0.51861,0.54424 -2.55887,-1.09035 z m -349.44113,-2.44483 c 0.825,-0.53316 1.95,-0.96937 2.5,-0.96937 0.55,0 0.325,0.43621 -0.5,0.96937 -0.825,0.53316 -1.95,0.96937 -2.5,0.96937 -0.55,0 -0.325,-0.43621 0.5,-0.96937 z m 344,0 c -0.825,-0.53316 -1.05,-0.96937 -0.5,-0.96937 0.55,0 1.675,0.43621 2.5,0.96937 0.825,0.53316 1.05,0.96937 0.5,0.96937 -0.55,0 -1.675,-0.43621 -2.5,-0.96937 z m -333.25,-3.66228 c 0.6875,-0.27741 1.8125,-0.27741 2.5,0 0.6875,0.27741 0.125,0.50439 -1.25,0.50439 -1.375,0 -1.9375,-0.22698 -1.25,-0.50439 z m 322.0625,-0.0208 c 0.72187,-0.28887 1.58438,-0.25335 1.91667,0.0789 0.33229,0.33229 -0.25834,0.56864 -1.3125,0.52522 -1.16495,-0.048 -1.4019,-0.28494 -0.60417,-0.60416 z m -238.0625,-1.06683 c 43.0375,-0.14425 113.4625,-0.14425 156.5,0 43.0375,0.14425 7.825,0.26228 -78.25,0.26228 -86.075,0 -121.2875,-0.11803 -78.25,-0.26228 z"
         id="path266" />
      <path
         style="fill:#1a1a1a"
         d="m 292.8101,782.98981 c -13.80696,-2.70739 -30.02051,-15.3105 -36.02197,-28.00057 -6.52308,-13.79305 -6.1196,5.01776 -5.80004,-270.40897 0.2657,-229.0049 0.42817,-250.38626 1.93467,-254.59943 6.77263,-18.94082 21.92619,-33.00149 39.63012,-36.77197 3.8074,-0.81088 49.56524,-1.1286 162.5399,-1.1286 136.90851,0 157.98925,0.19498 163.02982,1.50788 20.50355,5.3405 36.46133,22.76664 39.54492,43.18367 1.52894,10.1234 1.52894,492.4935 0,502.6169 -3.0883,20.44821 -19.69925,38.36491 -40.00693,43.15177 -5.58099,1.31553 -26.64632,1.498 -163.40693,1.41543 -86.35,-0.0521 -158.9996,-0.48688 -161.44356,-0.96611 z m 176.00606,-36.71726 c 16.25243,-4.50667 28.18186,-17.91704 31.10563,-34.96716 3.84553,-22.42539 -12.19978,-44.95444 -35.05462,-49.21984 -7.30071,-1.36253 -134.02974,-1.34869 -141.22269,0.0154 -29.54378,5.60286 -44.96942,38.30032 -30.15367,63.91619 5.86417,10.13894 14.58145,16.97131 25.76285,20.19224 5.41291,1.55926 12.70469,1.73535 74.52164,1.79962 63.15341,0.0657 69.03238,-0.0704 75.04086,-1.73648 z m 119.6068,-0.68671 c 7.60696,-2.25903 16.91102,-8.92986 21.89216,-15.69626 22.55573,-30.63979 1.59986,-72.80931 -36.1821,-72.80931 -22.53933,0 -41.12407,16.21363 -44.6429,38.94719 -2.13952,13.82247 2.15294,26.94516 12.25503,37.46543 12.39572,12.90886 29.23761,17.27213 46.67781,12.09295 z m 6.6183,-127.24213 c 12.45967,-5.86225 21.83476,-16.95711 25.17949,-29.7984 4.21111,-16.16755 -0.43482,-32.40678 -12.5877,-43.99868 -13.9961,-13.35001 -34.30346,-16.50319 -51.5118,-7.99837 -18.76769,9.2755 -29.02319,31.07703 -23.88972,50.78572 4.19378,16.10102 14.55005,27.48992 30.00907,33.00127 3.87475,1.3814 7.39729,1.72079 15.51306,1.49463 9.39039,-0.26168 11.2173,-0.63009 17.2876,-3.48617 z m -250.1301,-1.25723 c 23.35691,-8.89654 33.97802,-35.55614 23.38428,-58.69591 -3.24468,-7.08732 -12.82969,-16.63713 -19.98749,-19.91407 -16.96384,-7.76631 -35.61265,-4.49787 -48.63429,8.52377 -16.90084,16.90084 -16.99054,43.19411 -0.20449,59.94255 5.98495,5.97154 14.16065,10.57051 21.61006,12.15602 6.11101,1.30064 17.70402,0.32174 23.83193,-2.01236 z m 118.1629,1.49855 c 18.36927,-4.78458 31.14329,-19.88268 32.40084,-38.29577 0.94051,-13.77094 -3.31616,-24.75273 -13.22797,-34.12691 -13.48025,-12.74906 -31.70419,-15.36524 -48.49403,-6.96166 -9.20469,4.60709 -14.84179,10.34103 -19.17415,19.50351 -15.37472,32.51594 14.05256,68.85203 48.49531,59.88083 z M 587.40347,498.68534 c 12.65485,-3.36948 22.98057,-12.03152 29.09836,-24.41004 3.70831,-7.50325 3.75183,-7.7311 3.75183,-19.64317 0,-11.38999 -0.16928,-12.40883 -3.08235,-18.55186 -8.73395,-18.418 -28.88838,-29.37182 -48.16522,-26.17755 -15.02621,2.48993 -28.12849,12.38277 -34.67008,26.17755 -2.91307,6.14303 -3.08235,7.16187 -3.08235,18.55186 0,11.89282 0.0491,12.15115 3.71841,19.57555 5.9763,12.09223 16.51749,21.07068 28.67406,24.42313 6.19547,1.70854 17.44835,1.73437 23.75734,0.0545 z m -243.98196,-3.62585 c 10.63322,-3.64211 19.51555,-11.87268 24.64709,-22.83854 2.51484,-5.37409 3.16881,-8.22607 3.50667,-15.29266 0.49819,-10.42008 -1.31506,-17.20702 -6.90979,-25.86316 -11.57567,-17.90981 -36.23952,-24.02092 -56.085,-13.89651 -6.49588,3.31395 -14.49038,11.97897 -18.11821,19.63782 -3.03279,6.40265 -3.20861,7.40399 -3.20861,18.27383 0,10.91637 0.16293,11.83293 3.21041,18.06002 9.60553,19.62752 32.26568,29.00661 52.95744,21.9192 z m 122.43715,0.40277 c 10.26426,-3.22394 20.02624,-11.84058 25.10718,-22.16143 2.8327,-5.75401 3.27975,-7.77955 3.62741,-16.43538 0.33684,-8.38639 0.0573,-10.80682 -1.85731,-16.07887 -5.39212,-14.84802 -16.79976,-24.79911 -31.81559,-27.7533 -27.89404,-5.48782 -52.69375,16.14202 -50.92514,44.41595 1.75639,28.07882 28.83268,46.50323 55.86345,38.01303 z M 607.50799,368.66898 c 5.72087,-3.16978 9.8674,-7.88339 11.87455,-13.49851 0.97827,-2.73677 1.29145,-15.59456 1.31746,-54.0902 l 0.0341,-50.5 -2.33177,-5.00728 c -2.54017,-5.45483 -8.11169,-10.95258 -13.29382,-13.11782 -2.7414,-1.14542 -27.88142,-1.3749 -150.62639,-1.3749 H 307.14635 l -5.22431,2.60338 c -5.55202,2.76669 -9.13157,6.67095 -11.65644,12.71381 -2.22457,5.32415 -2.3337,104.47207 -0.12082,109.76752 3.05599,7.31299 8.94569,12.49478 16.54767,14.5587 3.54371,0.96211 37.01886,1.19578 150.06121,1.04747 l 145.5,-0.19088 z"
         id="path264" />
    </g>
  </g>
</svg>
